<svg xmlns="http://www.w3.org/2000/svg" viewBox="0 0 70 70" enable-background="new 0 0 70 70"><style type="text/css">.st0{fill:#FFFFFF;}</style><path class="st0" d="M.1 63.8v-57.5c0-.1.1-.2.1-.4.5-2.2 1.6-3.9 3.6-4.9.8-.4 1.7-.7 2.6-1h57.5l.4.1c2.1.5 3.8 1.6 4.8 3.5.4.8.7 1.8 1 2.6v57.5c0 .1-.1.2-.1.4-.5 2.1-1.6 3.9-3.5 4.9-.8.4-1.8.7-2.6 1h-57.5l-.3-.1c-2.2-.4-3.9-1.6-5-3.6-.4-.7-.7-1.6-1-2.5zm38-32.5v-4.6c0-.5-.1-.7-.6-.7h-10.5c-.5 0-.6.2-.6.6v34.4c0 .5.2.7.7.7h10.3c.8 0 .8 0 .8-.8 0-6.7 0-13.5.1-20.2 0-2.7 1.8-5.1 4.8-5.3 2.4-.2 4.4.6 5.9 2.5 1.1 1.5 1.5 3.2 1.5 4.9v18.2c0 .6.2.7.7.7h10.3c.7 0 .7 0 .7-.7v-18.6c0-1.7-.1-3.4-.3-5-.4-2.8-1.4-5.4-3.4-7.6-1-1.1-2.1-2.2-3.5-2.9-1.2-.6-2.5-.8-3.8-.9-2.1-.2-4.2-.1-6.2.6-2.8 1-5 2.5-6.9 4.7zm-30.6-5.3v36h15.3v-36h-15.3zm7.4-17.8c-1.9.1-3.7.8-5.2 2.4-2.3 2.6-2.1 6.2.5 8.5 2.4 2.1 5.2 2.5 8.1 1.2 2.7-1.2 4.3-4 3.7-6.7-.5-3.1-3.6-5.4-7.1-5.4z"/></svg>