<svg xmlns="http://www.w3.org/2000/svg" viewBox="0 0 70 70" enable-background="new 0 0 70 70"><style type="text/css">.st0{fill:#FFFFFF;}</style><path class="st0" d="M34.9 70h-28.3c-4.1 0-6.6-2.5-6.6-6.6v-56.8c0-4.1 2.5-6.6 6.6-6.6h56.9c4 0 6.5 2.5 6.5 6.6v56.7c0 4.1-2.5 6.6-6.6 6.6-9.5.1-19 .1-28.5.1zm-5.6-62.6c-.1.2-.1.3-.1.4-.8 6.7-4 11.6-10.4 14.1-.3.1-.6.6-.6 1-.1 2.1 0 4.1 0 6.2 0 .2.1.5.1.8h5.9v1.3c0 6.4 0 12.9.1 19.3 0 1.6.3 3.3.9 4.7 1.2 2.9 3.6 4.7 6.5 5.7 5.7 2.1 11.5 1.7 17.1-.3 1-.4 2.4-.7 2.9-1.4s.2-2.1.2-3.1v-4.3c0-.3 0-.6-.1-.9-.1 0-.2-.1-.2 0l-.7.4c-2.7 1.5-5.6 2.4-8.7 1.9-2.4-.4-4.9-1.7-5-4.9l-.1-2.5v-14.9c0-.3 0-.7.1-1.1h12.9v-8.6h-13v-13.8h-7.8z"/></svg>